<svg width="120" height="120" viewBox="0 0 120 120" fill="none" xmlns="http://www.w3.org/2000/svg">
  <rect width="120" height="120" rx="15" fill="#121212" />
  <circle cx="60" cy="60" r="35" fill="#9B4D1F" />
  <path d="M40 45C40 45 55 35 80 45C80 45 85 60 80 75C80 75 55 85 40 75C40 75 35 60 40 45Z" fill="#D48C3D" />
  <circle cx="60" cy="60" r="15" fill="#7A3A0F" />
  <path d="M36 36C36 36 43 33 48 38C48 38 51 45 48 50C48 50 41 53 36 50C36 50 33 45 36 36Z" fill="#FFFFFF" opacity="0.3" />
</svg> 